<svg xmlns="http://www.w3.org/2000/svg" xmlns:xlink="http://www.w3.org/1999/xlink" viewBox="0 0 1080 2400"><defs><linearGradient id="a" x1="-533.66" y1="-1613.48" x2="545.44" y2="-1613.48" gradientTransform="matrix(0.86, -0.69, 0.86, 1.08, 2790, 3393.05)" gradientUnits="userSpaceOnUse"><stop offset="0" stop-color="#40ff15"/><stop offset="0.37" stop-color="#6a3500"/><stop offset="1" stop-color="#2aa3ff"/></linearGradient><linearGradient id="b" x1="-47.16" y1="-2279.63" x2="1031.93" y2="-2279.63" xlink:href="#a"/><linearGradient id="c" x1="-810.73" y1="-2310.88" x2="268.36" y2="-2310.88" xlink:href="#a"/><radialGradient id="d" cx="432.41" cy="-1433.13" r="929.62" gradientTransform="translate(231.27 1462.17) rotate(-16.01) scale(1 0.45)" gradientUnits="userSpaceOnUse"><stop offset="0" stop-color="#f0ff15"/><stop offset="0.88" stop-color="#00cce9"/><stop offset="1" stop-color="#fd00ff"/></radialGradient><linearGradient id="e" x1="-1605.86" y1="-2130.16" x2="-526.77" y2="-2130.16" xlink:href="#a"/><radialGradient id="f" cx="520" cy="1686.89" r="524.55" gradientTransform="translate(661.35 -27.52) rotate(20.57)" xlink:href="#d"/></defs><path d="M2056.57,3095a544.74,544.74,0,0,1-230.29-51.34,534.19,534.19,0,0,1-191.46-151.31L234.49,1140.58A539.06,539.06,0,0,1,319,382.31l88.5-70.74A537.29,537.29,0,0,1,744,193.45,544.72,544.72,0,0,1,974.33,244.8a534.18,534.18,0,0,1,191.46,151.3L2566.12,2147.83a539,539,0,0,1-84.53,758.27l-88.5,70.74A537.07,537.07,0,0,1,2056.57,3095Z" fill="url(#a)"/><path d="M744.05,194a541.14,541.14,0,0,1,230.07,51.3A536.89,536.89,0,0,1,1165.4,396.42L2565.73,2148.14A536.47,536.47,0,0,1,2682,2441a540.58,540.58,0,0,1-63.29,300.61,535.7,535.7,0,0,1-137.43,164.09l-88.5,70.74A538.4,538.4,0,0,1,1635.22,2892L234.88,1140.27A536.4,536.4,0,0,1,118.61,847.4a540.5,540.5,0,0,1,63.3-300.61A535.5,535.5,0,0,1,319.34,382.71L407.83,312A536.74,536.74,0,0,1,744,194h0m0-1A537.73,537.73,0,0,0,407.21,311.18l-88.5,70.74C85.76,568.14,47.88,908,234.1,1140.9L1634.43,2892.62c106.65,133.41,263.67,202.84,422.14,202.84a537.7,537.7,0,0,0,336.84-118.23l88.49-70.74c232.95-186.22,270.83-526,84.61-759L1166.18,395.79C1059.53,262.38,902.52,193,744,193Z"/><path d="M1900.57,2039a544.74,544.74,0,0,1-230.29-51.34,534.19,534.19,0,0,1-191.46-151.31L78.49,84.58a536.2,536.2,0,0,1-98-190.5A537.54,537.54,0,0,1-36.28-312.06,537.71,537.71,0,0,1,25.47-509.45,536.23,536.23,0,0,1,163-673.69l88.5-70.74A538,538,0,0,1,412.78-833.3,537.28,537.28,0,0,1,588-862.55,544.72,544.72,0,0,1,818.33-811.2a534.18,534.18,0,0,1,191.46,151.3L2410.12,1091.83a539,539,0,0,1-84.53,758.27l-88.5,70.74A537.07,537.07,0,0,1,1900.57,2039Z" fill="url(#b)"/><path d="M588.05-862a543.3,543.3,0,0,1,117.59,12.91,540.46,540.46,0,0,1,112.48,38.39A536.26,536.26,0,0,1,920.9-747.39a541.64,541.64,0,0,1,88.5,87.81L2409.73,1092.14A536.47,536.47,0,0,1,2526,1385a540.58,540.58,0,0,1-63.29,300.61,535.7,535.7,0,0,1-137.43,164.09l-88.5,70.74A538.4,538.4,0,0,1,1479.22,1836L78.88,84.27A535.69,535.69,0,0,1-19-106,539.29,539.29,0,0,1-37.39-208.6,543,543,0,0,1-35.79-312,543,543,0,0,1-14.58-413.22a540,540,0,0,1,40.49-96A535.5,535.5,0,0,1,163.34-673.29L251.83-744a537.71,537.71,0,0,1,161.11-88.79A536.88,536.88,0,0,1,588-862h0m0-1A537.73,537.73,0,0,0,251.21-744.82l-88.5,70.74C-70.24-487.86-108.12-148,78.1,84.9L1478.43,1836.62c106.65,133.41,263.67,202.84,422.14,202.84a537.7,537.7,0,0,0,336.84-118.23l88.49-70.74c232.95-186.22,270.83-526,84.61-759L1010.18-660.21C903.53-793.62,746.52-863,588-863Z"/><path d="M1214.57,2532a544.74,544.74,0,0,1-230.29-51.34,534.19,534.19,0,0,1-191.46-151.31L-607.51,577.58a536.2,536.2,0,0,1-98-190.5,537.54,537.54,0,0,1-16.76-206.14A537.71,537.71,0,0,1-660.53-16.45,536.23,536.23,0,0,1-523-180.69l88.5-70.74A538,538,0,0,1-273.22-340.3,537.28,537.28,0,0,1-98-369.55,544.72,544.72,0,0,1,132.33-318.2,534.18,534.18,0,0,1,323.79-166.9L1724.12,1584.83a539,539,0,0,1-84.53,758.27l-88.5,70.74A537.07,537.07,0,0,1,1214.57,2532Z" fill="url(#c)"/><path d="M-97.95-369A543.3,543.3,0,0,1,19.64-356.14a540.46,540.46,0,0,1,112.48,38.39A536.26,536.26,0,0,1,234.9-254.39a541.64,541.64,0,0,1,88.5,87.81L1723.73,1585.14A536.47,536.47,0,0,1,1840,1878a540.58,540.58,0,0,1-63.29,300.61,535.7,535.7,0,0,1-137.43,164.09l-88.5,70.74A538.4,538.4,0,0,1,793.22,2329L-607.12,577.27A535.69,535.69,0,0,1-705,387,539.29,539.29,0,0,1-723.39,284.4a543,543,0,0,1,1.6-103.4A543,543,0,0,1-700.58,79.78a540,540,0,0,1,40.49-96A535.5,535.5,0,0,1-522.66-180.29L-434.17-251a537.71,537.71,0,0,1,161.11-88.79A536.88,536.88,0,0,1-98-369h0m0-1A537.73,537.73,0,0,0-434.79-251.82l-88.5,70.74c-233,186.22-270.83,526-84.61,759L792.43,2329.62c106.65,133.41,263.67,202.84,422.14,202.84a537.7,537.7,0,0,0,336.84-118.23l88.49-70.74c232.95-186.22,270.83-526,84.61-759L324.18-167.21C217.53-300.62,60.52-370-98-370Z"/><path d="M401.1,1286A440.32,440.32,0,0,1-22.32,966.77L-76.81,776.9a440.37,440.37,0,0,1,302-545.22L415.1,177.19a440.3,440.3,0,0,1,545.22,302l54.49,189.87a440.37,440.37,0,0,1-302,545.22L522.9,1268.81A441.31,441.31,0,0,1,401.1,1286Z" fill="url(#d)"/><path d="M536.93,160.47a439.79,439.79,0,0,1,422.91,318.9l54.49,189.87a439.88,439.88,0,0,1-301.7,544.6l-189.87,54.49a439.81,439.81,0,0,1-544.6-301.7L-76.33,776.76a439.88,439.88,0,0,1,301.7-544.6l189.87-54.49a441,441,0,0,1,121.68-17.2h0m0-1A441.46,441.46,0,0,0,415,176.71L225.1,231.2C-9.13,298.43-144.52,542.8-77.29,777L-22.8,966.9c55.56,193.57,232.08,319.63,423.9,319.63A441.46,441.46,0,0,0,523,1269.29L712.9,1214.8c234.23-67.23,369.62-311.6,302.39-545.83L960.8,479.1C905.24,285.53,728.72,159.46,536.9,159.47Z"/><path d="M684.57,3276a544.74,544.74,0,0,1-230.29-51.34,534.19,534.19,0,0,1-191.46-151.31L-1137.51,1321.58a536.2,536.2,0,0,1-98-190.5,537.54,537.54,0,0,1-16.76-206.14,537.71,537.71,0,0,1,61.75-197.39A536.23,536.23,0,0,1-1053,563.31l88.5-70.74A538,538,0,0,1-803.22,403.7,537.28,537.28,0,0,1-628,374.45,544.72,544.72,0,0,1-397.67,425.8,534.18,534.18,0,0,1-206.21,577.1L1194.12,2328.83a539,539,0,0,1-84.53,758.27l-88.5,70.74A537.07,537.07,0,0,1,684.57,3276Z" fill="url(#e)"/><path d="M-627.95,375a543.3,543.3,0,0,1,117.59,12.91,540.46,540.46,0,0,1,112.48,38.39A536.26,536.26,0,0,1-295.1,489.61a541.64,541.64,0,0,1,88.5,87.81L1193.73,2329.14A536.47,536.47,0,0,1,1310,2622a540.58,540.58,0,0,1-63.29,300.61,535.7,535.7,0,0,1-137.43,164.09l-88.5,70.74A538.4,538.4,0,0,1,263.22,3073L-1137.12,1321.27A535.69,535.69,0,0,1-1235,1131a539.29,539.29,0,0,1-18.35-102.55,543,543,0,0,1,1.6-103.4,543,543,0,0,1,21.21-101.22,540,540,0,0,1,40.49-96,535.5,535.5,0,0,1,137.43-164.08L-964.17,493a537.71,537.71,0,0,1,161.11-88.79A536.88,536.88,0,0,1-628,375h0m0-1A537.73,537.73,0,0,0-964.79,492.18l-88.5,70.74c-233,186.22-270.83,526-84.61,759L262.43,3073.62C369.08,3207,526.1,3276.46,684.57,3276.46a537.7,537.7,0,0,0,336.84-118.23l88.49-70.74c232.95-186.22,270.83-526,84.61-759L-205.82,576.79C-312.47,443.38-469.48,374-628,374Z"/><polygon points="437.2 2049.63 64.8 2096.42 254.18 1772.37 94.6 1432.65 461.31 1512.63 735.1 1255.89 772.35 1629.37 1101.13 1810.41 757.45 1961.25 686.86 2329.89 437.2 2049.63" fill="url(#f)"/><path d="M734.7,1257l37.13,372.2,0,.53.46.25L1100,1810.36,757.48,1960.69l-.48.21-.1.51L686.56,2328.8,437.75,2049.5l-.35-.4-.52.07L65.74,2095.8l188.74-323,.26-.45-.22-.48-159-338.56L461,1513.07l.52.11.38-.36L734.7,1257m.79-2.12L461.16,1512.09,93.72,1432l159.9,340.4L63.85,2097,437,2050.16,687.16,2331l70.73-369.38,344.37-151.14-329.44-181.4-37.33-374.23Z"/></svg>